<?xml version="1.0" encoding="iso-8859-1"?>
<!-- Uploaded to: SVG Repo, www.svgrepo.com, Generator: SVG Repo Mixer Tools -->
<svg height="800px" width="800px" version="1.1" id="Layer_1" xmlns="http://www.w3.org/2000/svg" xmlns:xlink="http://www.w3.org/1999/xlink" 
	 viewBox="0 0 512 512" xml:space="preserve">
<path style="fill:#D95782;" d="M446.375,441.585c-1.163,0-2.359-0.119-3.555-0.381c-9.013-1.957-14.73-10.839-12.775-19.863
	L476.5,207.096l-42.172-9.844c-8.107-1.893-14.321-9.194-13.741-17.499c0.737-10.567,10.604-17.499,20.472-15.229l53.711,12.54
	c11.84,2.764,19.274,14.517,16.698,26.401L462.683,428.43C460.986,436.247,454.072,441.585,446.375,441.585z"/>
<g>
	<path style="fill:#F26C9A;" d="M335.028,91.02c-1.272,0.294-2.555,0.435-3.805,0.435c-7.588,0-14.449-5.197-16.253-12.905
		l-10.035-43.019L90.689,81.986c-9.1,2.001-17.906-3.773-19.863-12.775c-1.957-9.023,3.762-17.905,12.775-19.863L308.549,0.511
		c11.886-2.581,23.643,4.855,26.406,16.699l12.542,53.751C349.596,79.942,344.008,88.922,335.028,91.02z"/>
	<path style="fill:#F26C9A;" d="M246.829,339.78c-1,0.111-1.891,0.223-2.783,0.223c-8.015,0-15.139-5.789-16.476-14.027
		c-0.667-4.008-1.78-7.793-3.339-11.355c-0.556-1.225-1.113-2.449-1.67-3.561c-2.56-4.898-5.9-9.351-9.908-13.137
		c-7.125-6.791-16.365-11.578-26.607-13.136c-9.128-1.447-15.362-9.908-14.026-19.037c1.447-9.129,10.131-15.363,19.147-13.916
		c17.479,2.783,33.176,10.687,45.199,22.488c12.468,12.134,21.152,28.165,24.158,46.2
		C262.082,329.65,255.847,338.222,246.829,339.78z"/>
</g>
<path style="fill:#D95782;" d="M246.829,339.78c-1,0.111-1.891,0.223-2.783,0.223c-8.015,0-15.139-5.789-16.476-14.027
	c-0.667-4.008-1.78-7.793-3.339-11.355c-0.556-1.225-1.113-2.449-1.67-3.561c-2.56-4.898-5.9-9.351-9.908-13.137l23.712-23.601
	c12.468,12.134,21.152,28.165,24.158,46.2C262.082,329.65,255.847,338.222,246.829,339.78z"/>
<path style="fill:#F26C9A;" d="M325.243,512c-47.074,0-93.996-17.96-120.489-59.022c0,0,0,0,0-0.011
	c-31.256-48.465-22.831-104.922,20.504-137.297c34.67-25.885,97.649-37.268,170.357,8.458
	c63.273,39.779,71.481,78.254,67.219,103.53c-4.457,26.429-24.471,49.749-56.358,65.675C382.373,505.39,353.77,512,325.243,512z"/>
<path style="fill:#FF80AB;" d="M119.543,326.031c-20.059,0-40.921-6.143-60.49-18.764l0,0
	c-65.969-42.552-72.318-137.841-40.366-201.734c15.948-31.886,39.279-51.89,65.686-56.336c25.309-4.262,63.74,3.946,103.519,67.197
	c45.726,72.72,34.354,135.688,8.458,170.368C177.042,312.604,149.167,326.031,119.543,326.031z"/>
<path style="fill:#665247;" d="M232.824,434.866c32.539,50.434,107.727,54.108,158.725,28.593
	c21.776-10.872,35.745-25.951,38.344-41.345c3.641-21.569-14.851-46.323-52.053-69.719c-58.423-36.724-106.813-29.245-132.6-9.958
	c-24.2,18.068-37.42,53.662-12.415,92.441V434.866z"/>
<path style="fill:#BDDEFF;" d="M376.252,431.213c-4.512,0-9.013-1.816-12.296-5.404c-14.6-15.905-35.789-27.581-56.673-31.244
	c-9.089-1.599-15.155-10.252-13.568-19.329c1.599-9.089,10.339-15.177,19.329-13.568c27.886,4.893,56.108,20.428,75.503,41.551
	c6.24,6.795,5.794,17.362-1,23.591C384.341,429.757,380.297,431.213,376.252,431.213z"/>
<path style="fill:#736056;" d="M95.332,81.682c-1.827,0-3.62,0.153-5.414,0.456c-15.394,2.587-30.462,16.557-41.355,38.334
	c-25.516,51.009-21.83,126.197,28.603,158.725l0,0c38.757,24.994,74.351,11.785,92.42-12.415
	c19.275-25.81,26.766-74.188-9.958-132.6C138.165,100.055,115.563,81.682,95.332,81.682z"/>
<path style="fill:#D7EBFF;" d="M136.654,221.338c-0.728,0.098-1.446,0.141-2.153,0.141c-8.274,0-15.46-6.143-16.536-14.568
	c-2.729-21.156-14.579-43.138-31.723-58.804c-6.805-6.219-7.284-16.786-1.065-23.591c6.23-6.816,16.774-7.273,23.591-1.065
	c23.146,21.145,38.572,50.009,42.312,79.2C152.266,211.803,145.798,220.163,136.654,221.338z"/>
</svg>